<?xml version="1.0" encoding="utf-8"?>
<!-- Generator: Adobe Illustrator 16.0.0, SVG Export Plug-In . SVG Version: 6.00 Build 0)  -->
<!DOCTYPE svg PUBLIC "-//W3C//DTD SVG 1.1//EN" "http://www.w3.org/Graphics/SVG/1.1/DTD/svg11.dtd">
<svg version="1.1" id="Layer_1" xmlns="http://www.w3.org/2000/svg" xmlns:xlink="http://www.w3.org/1999/xlink" x="0px" y="0px"
	 width="900px" height="750px" viewBox="0 0 900 750" enable-background="new 0 0 900 750" xml:space="preserve">
<g>
	<g>
		<g>
			<circle fill="none" stroke="#F5F5F5" stroke-width="10" cx="450" cy="375" r="263"/>
		</g>
	</g>
	<g>
		<g>
			<line fill="none" stroke="#F5F5F5" stroke-width="6" x1="296.224" y1="375" x2="603.43" y2="375"/>
			<circle fill="#F5F5F5" cx="296.619" cy="375" r="7.896"/>
			<circle fill="#F5F5F5" cx="603.035" cy="375" r="7.896"/>
		</g>
		<g>
			<circle fill="none" stroke="#F5F5F5" stroke-width="3" stroke-dasharray="10,10" cx="450" cy="375" r="248"/>
		</g>
	</g>
	<g>
		<g transform="translate(450,520)">
			<path fill="#F5F5F5" d="M-34.8-2.16c-1.2,0.62-2.351,1.15-3.84,1.15c-2.421,0-3.65-1.37-3.94-3.79h2.84c3.19,0,5.28-1.3,5.28-3.7
				c0-2.28-1.92-3.689-4.28-3.689c-3.76,0-5.279,3.569-5.279,6.67c0,3.26,1.68,5.76,5.38,5.76c1.729,0,3.22-0.551,4.46-1.391
				L-34.8-2.16z M-42.65-6.05c0-1.94,1.11-4.97,3.99-4.97c1.46,0,2.85,0.8,2.85,2.5c0,1.85-1.68,2.47-3.93,2.47H-42.65z
				 M-31.73-1.15c1.11,0.86,2.5,1.391,4.11,1.391c2.2,0,4.34-0.98,4.34-3.46c0-1.29-0.58-2.16-1.659-2.8
				c-1.82-1.11-4.721-1.37-4.721-3.291c0-0.959,0.74-1.629,2.11-1.629c0.739,0,1.819,0.189,2.83,0.72l0.26-1.23
				c-0.76-0.479-2.08-0.739-3.07-0.739c-1.939,0-3.53,1.05-3.53,3.02c0,2.55,2.671,2.859,4.73,3.84c1.11,0.53,1.66,1.11,1.66,2.141
				c0,1.609-1.37,2.18-2.83,2.18c-1.28,0-2.48-0.43-3.561-1.15L-31.73-1.15z M-19.25-11.95v-3.03h-1.32V-3.43
				c0,2.21,0.79,3.67,3,3.67c1.51,0,2.551-0.7,3.271-1.94l-0.99-0.72c-0.5,0.96-1.34,1.41-2.28,1.41c-1.369,0-1.68-0.93-1.68-2.42
				v-7.2h3.79v-1.32H-19.25z M-10.92-1.939c-0.55,0-1.01,0.449-1.01,1.029c0,0.55,0.46,1.01,1.01,1.01c0.58,0,1.03-0.46,1.03-1.01
				C-9.89-1.49-10.34-1.939-10.92-1.939z M5.54,0v-16.061H5.35C3.07-14.52,1.61-13.46,0.1-13.46l0.311,1.24
				c1.439,0,2.54-0.57,3.67-1.53V0H5.54z M10.27,0.89c2.761,0,5.11-1.13,6.82-3.029C18.65-3.86,19.7-6.26,19.7-8.86
				c0-3.79-2.25-6.72-5.71-6.72c-3.17,0-5.59,2.48-5.59,5.43c0,2.971,2.5,5.521,5.35,5.521c1.3,0,2.52-0.53,3.63-1.42
				c0.26-0.21,0.57-0.48,0.91-0.84c-0.63,1.829-1.61,3.579-3.19,4.829C13.63-0.91,11.95-0.38,10.27-0.38V0.89z M13.92-14.3
				c2.33,0,4.27,1.819,4.27,4.1c0,2.23-1.819,4.3-4.289,4.3c-2.4,0-4.23-1.949-4.23-4.279C9.67-12.6,11.689-14.3,13.92-14.3z
				 M31.51-15.48v-0.189L21.5-15.55v1.34l8.12-0.09L23.88,0h1.54L31.51-15.48z M42.24-14.3v-1.37L34.22-15.5v6.67l0.12,0.09
				C35.26-9.1,36.311-9.22,37.42-9.22c2.88,0,4.891,0.819,4.891,3.7c0,2.42-1.41,4.319-4.2,4.319c-1.53,0-2.591-0.58-4.08-1.66
				l-0.29,1.28c0.649,0.62,2.449,1.72,4.59,1.72c3.02,0,5.4-2.229,5.4-5.489c0-3.24-2.381-5.211-5.931-5.211
				c-0.55,0-1.08,0.051-2.11,0.19v-3.84L42.24-14.3z"/>
		</g>
		<g transform="translate(450,332)">
			<path fill="#F5F5F5" d="M-194.7-54.63c0.54-1.35,1.8-2.07,2.97-2.07s2.25,0.63,2.7,1.8L-170.49,0h5.22l20.07-61.65h-5.399
				l-17.28,53.91l-16.83-49.86c-0.9-2.61-3.42-4.5-6.84-4.5c-3.69,0-7.02,2.25-8.19,6.03L-194.7-54.63z M-118.2-45.72
				c-13.5,0-22.41,10.17-22.41,23.49S-131.7,0.9-118.29,0.9c13.14,0,22.41-9.45,22.41-23.22C-95.88-35.91-104.97-45.72-118.2-45.72z
				 M-118.2-41.04c10.44,0,17.19,7.2,17.19,18.36c0,10.71-6.21,18.899-17.19,18.899c-10.62,0-17.28-7.56-17.28-18.54
				C-135.48-32.76-129.45-41.04-118.2-41.04z M-79.77-65.34h-4.95v58.05c0,4.41,3.6,8.1,7.92,8.1c2.61,0,5.31-1.35,6.84-3.6
				l-4.14-2.7c-0.631,0.9-1.62,1.351-2.521,1.351c-1.53,0-3.149-1.17-3.149-3.15V-65.34z M-65.55-41.58
				c1.62,1.17,4.95,3.51,4.95,6.57v22.59c0.539,9,5.67,13.14,14.489,13.14c6.391,0,10.891-2.16,15.21-7.74
				c0.181,4.5,3.601,8.01,8.28,8.01c2.7,0,4.86-1.17,6.57-3.51l-4.14-2.79c-0.631,0.9-1.621,1.35-2.521,1.35
				c-1.53,0-3.24-1.17-3.24-3.15V-45h-4.86v32.04c-4.409,5.85-8.189,9-14.76,9c-6.84,0-10.08-3.42-10.08-10.8v-20.25
				c0-5.04-3.689-8.101-7.199-10.71L-65.55-41.58z M-11.64-42.48c2.43,2.43,3.6,5.94,3.6,10.71V0h4.95v-31.95
				c4.05-5.4,8.1-9.09,14.85-9.09c6.84,0,9.99,3.42,9.99,10.8V-6.93c0,4.319,3.24,8.1,8.1,8.1c2.881,0,5.04-1.26,6.66-3.6l-4.05-2.7
				c-0.72,0.9-1.62,1.35-2.521,1.35C28.41-3.78,26.7-4.95,26.7-6.93v-25.65c-0.54-9-5.67-13.14-14.49-13.14
				c-6.3,0-11.521,2.34-15.84,8.55c-0.63-3.33-2.07-6.3-4.95-8.28L-11.64-42.48z M50.1-44.82v-11.34H45.15v43.29
				c0,8.28,2.97,13.77,11.25,13.77c5.67,0,9.539-2.61,12.24-7.29l-3.69-2.7c-1.89,3.6-5.04,5.31-8.55,5.31
				c-5.131,0-6.301-3.51-6.301-9.09v-27H64.32v-4.95H50.1z M109.77-8.1c-4.5,2.34-8.819,4.32-14.399,4.32
				c-9.09,0-13.681-5.13-14.761-14.22H91.23c11.97,0,19.8-4.86,19.8-13.86c0-8.55-7.2-13.859-16.021-13.859
				c-14.13,0-19.8,13.41-19.8,25.02c0,12.24,6.3,21.6,20.16,21.6c6.479,0,12.06-2.07,16.739-5.22L109.77-8.1z M80.34-22.68
				c0-7.29,4.141-18.63,14.94-18.63c5.489,0,10.71,2.97,10.71,9.36c0,6.93-6.301,9.271-14.76,9.271H80.34z M154.95-8.1
				c-4.5,2.34-8.82,4.32-14.4,4.32c-9.09,0-13.68-5.13-14.76-14.22h10.62c11.97,0,19.8-4.86,19.8-13.86
				c0-8.55-7.2-13.859-16.021-13.859c-14.129,0-19.799,13.41-19.799,25.02c0,12.24,6.299,21.6,20.159,21.6
				c6.48,0,12.06-2.07,16.74-5.22L154.95-8.1z M125.52-22.68c0-7.29,4.141-18.63,14.94-18.63c5.49,0,10.71,2.97,10.71,9.36
				c0,6.93-6.3,9.271-14.76,9.271H125.52z M166.38-42.48c2.431,2.43,3.601,5.94,3.601,10.71V0h4.949v-32.13
				c1.53-2.79,3.69-5.22,5.221-6.48c1.979-1.62,4.229-2.34,7.649-2.34c1.17,0,2.61,0.09,5.04,0.63V-45
				c-3.33-0.63-4.05-0.72-5.22-0.72c-2.79,0-5.49,0.54-7.74,1.979c-1.979,1.26-3.96,3.51-5.489,6.21
				c-0.721-3.33-2.16-5.85-4.951-7.92L166.38-42.48z"/>
			<path fill="#F5F5F5" d="M-84.99,94.92l2.521,4.32c4.409-2.971,8.46-4.5,12.689-4.5c6.03,0,11.79,3.149,11.79,9.09
				c0,5.939-5.76,10.89-11.43,10.89h-9.811v5.04h9.9c7.2,0.36,14.67,4.59,14.67,13.32c0,8.46-7.109,12.689-16.02,12.689
				c-7.29,0-11.79-2.88-16.471-7.289l-3.06,3.959c4.229,3.961,11.07,8.641,20.7,8.641c10.89,0,20.609-6.03,20.609-17.19
				c0-6.3-3.06-12.239-7.83-15.3c-1.529-0.99-3.33-1.8-4.77-2.07c5.58-1.8,9.36-7.56,9.36-13.319c0-8.28-7.921-13.681-17.73-13.681
				c-5.76,0-9.63,1.891-14.22,4.86L-84.99,94.92z M-14.61,90.33C-30.27,90.33-39,104.55-39,120.57c0,15.84,8.55,30.33,24.39,30.33
				c15.48,0,24.391-13.86,24.391-30.061C9.78,104.82,1.14,90.33-14.61,90.33z M-14.52,95.28c12.33,0,18.72,11.88,18.72,25.2
				c0,12.689-5.761,25.47-18.63,25.47c-12.51,0-18.9-12.24-18.9-25.38C-33.33,107.52-27.03,95.28-14.52,95.28z M24.18,94.92
				l2.521,4.32c4.41-2.971,8.46-4.5,12.689-4.5c6.03,0,11.79,3.149,11.79,9.09c0,5.939-5.76,10.89-11.43,10.89h-9.811v5.04h9.9
				c7.2,0.36,14.67,4.59,14.67,13.32c0,8.46-7.109,12.689-16.02,12.689c-7.29,0-11.79-2.88-16.471-7.289l-3.06,3.959
				c4.229,3.961,11.07,8.641,20.7,8.641c10.89,0,20.609-6.03,20.609-17.19c0-6.3-3.06-12.239-7.83-15.3
				c-1.529-0.99-3.329-1.8-4.77-2.07c5.58-1.8,9.36-7.56,9.36-13.319c0-8.28-7.92-13.681-17.73-13.681
				c-5.76,0-9.63,1.891-14.22,4.86L24.18,94.92z M91.5,150V89.79h-0.72c-8.55,5.76-14.04,9.72-19.71,9.72l1.17,4.68
				c5.399,0,9.54-2.159,13.77-5.76V150H91.5z"/>
		</g>
	</g>
</g>
</svg>
