<?xml version="1.0" encoding="utf-8"?><!DOCTYPE svg PUBLIC "-//W3C//DTD SVG 1.1//EN" "http://www.w3.org/Graphics/SVG/1.1/DTD/svg11.dtd"><svg version="1.1" xmlns="http://www.w3.org/2000/svg" xmlns:xlink="http://www.w3.org/1999/xlink" viewBox="0 0 900 750" width="900" height="750"><g class="svg-logo"><g class="base"><g class="logo-element circle"><circle cx="450" cy="375" r="263" fill="none" stroke="#F5F5F5" stroke-width="10"></circle></g></g><g class="swag"><g class="logo-element horizontal-line-single-ends-circle"><line fill="#F5F5F5" stroke="#F5F5F5000" stroke-width="6" x1="296.224" y1="375" x2="603.43" y2="375"></line><circle cx="296.619" cy="375" r="7.896" fill="#F5F5F5"></circle><circle cx="603.035" cy="375" r="7.896" fill="#F5F5F5"></circle></g><g class="logo-element outline-edge-dashed"><circle fill="none" stroke="#F5F5F5" stroke-width="3" stroke-dasharray="10,10" cx="450" cy="375" r="248"></circle></g></g><g class="text"><g text-anchor="middle" transform="translate(450,520)" class="logo-element est"><path d="M10.20-2.16C9-1.54 7.85-1.01 6.36-1.01C3.94-1.01 2.71-2.38 2.42-4.80L5.26-4.80C8.45-4.80 10.54-6.10 10.54-8.50C10.54-10.78 8.62-12.19 6.26-12.19C2.50-12.19 0.98-8.62 0.98-5.52C0.98-2.26 2.66 0.24 6.36 0.24C8.09 0.24 9.58-0.31 10.82-1.15ZM2.35-6.05C2.35-7.99 3.46-11.02 6.34-11.02C7.80-11.02 9.19-10.22 9.19-8.52C9.19-6.67 7.51-6.05 5.26-6.05ZM13.27-1.15C14.38-0.29 15.77 0.24 17.38 0.24C19.58 0.24 21.72-0.74 21.72-3.22C21.72-4.51 21.14-5.38 20.06-6.02C18.24-7.13 15.34-7.39 15.34-9.31C15.34-10.27 16.08-10.94 17.45-10.94C18.19-10.94 19.27-10.75 20.28-10.22L20.54-11.45C19.78-11.93 18.46-12.19 17.47-12.19C15.53-12.19 13.94-11.14 13.94-9.17C13.94-6.62 16.61-6.31 18.67-5.33C19.78-4.80 20.33-4.22 20.33-3.19C20.33-1.58 18.96-1.01 17.50-1.01C16.22-1.01 15.02-1.44 13.94-2.16ZM25.75-11.95L25.75-14.98L24.43-14.98L24.43-3.43C24.43-1.22 25.22 0.24 27.43 0.24C28.94 0.24 29.98-0.46 30.70-1.70L29.71-2.42C29.21-1.46 28.37-1.01 27.43-1.01C26.06-1.01 25.75-1.94 25.75-3.43L25.75-10.63L29.54-10.63L29.54-11.95ZM34.08-1.94C33.53-1.94 33.07-1.49 33.07-0.91C33.07-0.36 33.53 0.10 34.08 0.10C34.66 0.10 35.11-0.36 35.11-0.91C35.11-1.49 34.66-1.94 34.08-1.94ZM50.54 0L50.54-16.06L50.35-16.06C48.07-14.52 46.61-13.46 45.10-13.46L45.41-12.22C46.85-12.22 47.95-12.79 49.08-13.75L49.08 0ZM55.27 0.89C58.03 0.89 60.38-0.24 62.09-2.14C63.65-3.86 64.70-6.26 64.70-8.86C64.70-12.65 62.45-15.58 58.99-15.58C55.82-15.58 53.40-13.10 53.40-10.15C53.40-7.18 55.90-4.63 58.75-4.63C60.05-4.63 61.27-5.16 62.38-6.05C62.64-6.26 62.95-6.53 63.29-6.89C62.66-5.06 61.68-3.31 60.10-2.06C58.63-0.91 56.95-0.38 55.27-0.38ZM58.92-14.30C61.25-14.30 63.19-12.48 63.19-10.20C63.19-7.97 61.37-5.90 58.90-5.90C56.50-5.90 54.67-7.85 54.67-10.18C54.67-12.60 56.69-14.30 58.92-14.30ZM76.51-15.48L76.51-15.67L66.50-15.55L66.50-14.21L74.62-14.30L68.88 0L70.42 0ZM87.24-14.30L87.24-15.67L79.22-15.50L79.22-8.83L79.34-8.74C80.26-9.10 81.31-9.22 82.42-9.22C85.30-9.22 87.31-8.40 87.31-5.52C87.31-3.10 85.90-1.20 83.11-1.20C81.58-1.20 80.52-1.78 79.03-2.86L78.74-1.58C79.39-0.96 81.19 0.14 83.33 0.14C86.35 0.14 88.73-2.09 88.73-5.35C88.73-8.59 86.35-10.56 82.80-10.56C82.25-10.56 81.72-10.51 80.69-10.37L80.69-14.21Z" fill="#F5F5F5" transform="translate(-45,0)"></path></g><g text-anchor="middle" transform="translate(450,332)" class="logo-element double-line"><path d="M6.30-54.63C6.84-55.98 8.10-56.70 9.27-56.70C10.44-56.70 11.52-56.07 11.97-54.90L30.51 0L35.73 0L55.80-61.65L50.40-61.65L33.12-7.74L16.29-57.60C15.39-60.21 12.87-62.10 9.45-62.10C5.76-62.10 2.43-59.85 1.26-56.07ZM82.80-45.72C69.30-45.72 60.39-35.55 60.39-22.23C60.39-8.91 69.30 0.90 82.71 0.90C95.85 0.90 105.12-8.55 105.12-22.32C105.12-35.91 96.03-45.72 82.80-45.72ZM82.80-41.04C93.24-41.04 99.99-33.84 99.99-22.68C99.99-11.97 93.78-3.78 82.80-3.78C72.18-3.78 65.52-11.34 65.52-22.32C65.52-32.76 71.55-41.04 82.80-41.04ZM121.23-65.34L116.28-65.34L116.28-7.29C116.28-2.88 119.88 0.81 124.20 0.81C126.81 0.81 129.51-0.54 131.04-2.79L126.90-5.49C126.27-4.59 125.28-4.14 124.38-4.14C122.85-4.14 121.23-5.31 121.23-7.29ZM135.45-41.58C137.07-40.41 140.40-38.07 140.40-35.01L140.40-12.42C140.94-3.42 146.07 0.72 154.89 0.72C161.28 0.72 165.78-1.44 170.10-7.02C170.28-2.52 173.70 0.99 178.38 0.99C181.08 0.99 183.24-0.18 184.95-2.52L180.81-5.31C180.18-4.41 179.19-3.96 178.29-3.96C176.76-3.96 175.05-5.13 175.05-7.11L175.05-45L170.19-45L170.19-12.96C165.78-7.11 162-3.96 155.43-3.96C148.59-3.96 145.35-7.38 145.35-14.76L145.35-35.01C145.35-40.05 141.66-43.11 138.15-45.72ZM189.36-42.48C191.79-40.05 192.96-36.54 192.96-31.77L192.96 0L197.91 0L197.91-31.95C201.96-37.35 206.01-41.04 212.76-41.04C219.60-41.04 222.75-37.62 222.75-30.24L222.75-6.93C222.75-2.61 225.99 1.17 230.85 1.17C233.73 1.17 235.89-0.09 237.51-2.43L233.46-5.13C232.74-4.23 231.84-3.78 230.94-3.78C229.41-3.78 227.70-4.95 227.70-6.93L227.70-32.58C227.16-41.58 222.03-45.72 213.21-45.72C206.91-45.72 201.69-43.38 197.37-37.17C196.74-40.50 195.30-43.47 192.42-45.45ZM251.10-44.82L251.10-56.16L246.15-56.16L246.15-12.87C246.15-4.59 249.12 0.90 257.40 0.90C263.07 0.90 266.94-1.71 269.64-6.39L265.95-9.09C264.06-5.49 260.91-3.78 257.40-3.78C252.27-3.78 251.10-7.29 251.10-12.87L251.10-39.87L265.32-39.87L265.32-44.82ZM310.77-8.10C306.27-5.76 301.95-3.78 296.37-3.78C287.28-3.78 282.69-8.91 281.61-18L292.23-18C304.20-18 312.03-22.86 312.03-31.86C312.03-40.41 304.83-45.72 296.01-45.72C281.88-45.72 276.21-32.31 276.21-20.70C276.21-8.46 282.51 0.90 296.37 0.90C302.85 0.90 308.43-1.17 313.11-4.32ZM281.34-22.68C281.34-29.97 285.48-41.31 296.28-41.31C301.77-41.31 306.99-38.34 306.99-31.95C306.99-25.02 300.69-22.68 292.23-22.68ZM355.95-8.10C351.45-5.76 347.13-3.78 341.55-3.78C332.46-3.78 327.87-8.91 326.79-18L337.41-18C349.38-18 357.21-22.86 357.21-31.86C357.21-40.41 350.01-45.72 341.19-45.72C327.06-45.72 321.39-32.31 321.39-20.70C321.39-8.46 327.69 0.90 341.55 0.90C348.03 0.90 353.61-1.17 358.29-4.32ZM326.52-22.68C326.52-29.97 330.66-41.31 341.46-41.31C346.95-41.31 352.17-38.34 352.17-31.95C352.17-25.02 345.87-22.68 337.41-22.68ZM367.38-42.48C369.81-40.05 370.98-36.54 370.98-31.77L370.98 0L375.93 0L375.93-32.13C377.46-34.92 379.62-37.35 381.15-38.61C383.13-40.23 385.38-40.95 388.80-40.95C389.97-40.95 391.41-40.86 393.84-40.32L393.84-45C390.51-45.63 389.79-45.72 388.62-45.72C385.83-45.72 383.13-45.18 380.88-43.74C378.90-42.48 376.92-40.23 375.39-37.53C374.67-40.86 373.23-43.38 370.44-45.45Z" fill="#F5F5F5" transform="translate(-201,0)"></path><path d="M8.01 94.92L10.53 99.24C14.94 96.27 18.99 94.74 23.22 94.74C29.25 94.74 35.01 97.89 35.01 103.83C35.01 109.77 29.25 114.72 23.58 114.72L13.77 114.72L13.77 119.76L23.67 119.76C30.87 120.12 38.34 124.35 38.34 133.08C38.34 141.54 31.23 145.77 22.32 145.77C15.03 145.77 10.53 142.89 5.85 138.48L2.79 142.44C7.02 146.40 13.86 151.08 23.49 151.08C34.38 151.08 44.10 145.05 44.10 133.89C44.10 127.59 41.04 121.65 36.27 118.59C34.74 117.60 32.94 116.79 31.50 116.52C37.08 114.72 40.86 108.96 40.86 103.20C40.86 94.92 32.94 89.52 23.13 89.52C17.37 89.52 13.50 91.41 8.91 94.38ZM78.39 90.33C62.73 90.33 54.00 104.55 54.00 120.57C54.00 136.41 62.55 150.90 78.39 150.90C93.87 150.90 102.78 137.04 102.78 120.84C102.78 104.82 94.14 90.33 78.39 90.33ZM78.48 95.28C90.81 95.28 97.20 107.16 97.20 120.48C97.20 133.17 91.44 145.95 78.57 145.95C66.06 145.95 59.67 133.71 59.67 120.57C59.67 107.52 65.97 95.28 78.48 95.28ZM117.18 94.92L119.70 99.24C124.11 96.27 128.16 94.74 132.39 94.74C138.42 94.74 144.18 97.89 144.18 103.83C144.18 109.77 138.42 114.72 132.75 114.72L122.94 114.72L122.94 119.76L132.84 119.76C140.04 120.12 147.51 124.35 147.51 133.08C147.51 141.54 140.40 145.77 131.49 145.77C124.20 145.77 119.70 142.89 115.02 138.48L111.96 142.44C116.19 146.40 123.03 151.08 132.66 151.08C143.55 151.08 153.27 145.05 153.27 133.89C153.27 127.59 150.21 121.65 145.44 118.59C143.91 117.60 142.11 116.79 140.67 116.52C146.25 114.72 150.03 108.96 150.03 103.20C150.03 94.92 142.11 89.52 132.30 89.52C126.54 89.52 122.67 91.41 118.08 94.38ZM184.50 150L184.50 89.79L183.78 89.79C175.23 95.55 169.74 99.51 164.07 99.51L165.24 104.19C170.64 104.19 174.78 102.03 179.01 98.43L179.01 150Z" fill="#F5F5F5" transform="translate(-93,0)"></path></g></g></g></svg>